<?xml version="1.0" encoding="UTF-8" standalone="no"?>
<!DOCTYPE svg PUBLIC "-//W3C//DTD SVG 1.1//EN"
 "http://www.w3.org/Graphics/SVG/1.1/DTD/svg11.dtd">
<!-- Generated by graphviz version 2.40.1 (20161225.0304)
 -->
<!-- Title: Critical2 Pages: 1 -->
<svg width="315pt" height="357pt"
 viewBox="0.00 0.00 314.93 356.80" xmlns="http://www.w3.org/2000/svg" xmlns:xlink="http://www.w3.org/1999/xlink">
<g id="page0,1_graph0" class="graph" transform="scale(1 1) rotate(0) translate(4 352.8)">
<title>Critical2</title>
<polygon fill="#ffffff" stroke="transparent" points="-4,4 -4,-352.8 310.9278,-352.8 310.9278,4 -4,4"/>
<text text-anchor="middle" x="153.4639" y="-332.2" font-family="Times,serif" font-size="14.00" fill="#000000">Caminho Critico 2 &#160;:: &#160;Peso Total = 22</text>
<!-- 113476 -->
<g id="node1" class="node">
<title>113476</title>
<ellipse fill="none" stroke="#000000" cx="153.4639" cy="-306" rx="148.771" ry="18"/>
<text text-anchor="middle" x="153.4639" y="-301.8" font-family="Times,serif" font-size="14.00" fill="#000000">113476 Peso: 6 Peso Acumulado: 6</text>
</g>
<!-- 129011 -->
<g id="node2" class="node">
<title>129011</title>
<ellipse fill="none" stroke="#000000" cx="153.4639" cy="-234" rx="153.4278" ry="18"/>
<text text-anchor="middle" x="153.4639" y="-229.8" font-family="Times,serif" font-size="14.00" fill="#000000">129011 Peso: 4 Peso Acumulado: 10</text>
</g>
<!-- 113476&#45;&gt;129011 -->
<g id="edge1" class="edge">
<title>113476&#45;&gt;129011</title>
<path fill="none" stroke="#000000" d="M153.4639,-287.8314C153.4639,-280.131 153.4639,-270.9743 153.4639,-262.4166"/>
<polygon fill="#000000" stroke="#000000" points="156.964,-262.4132 153.4639,-252.4133 149.964,-262.4133 156.964,-262.4132"/>
</g>
<!-- 116394 -->
<g id="node3" class="node">
<title>116394</title>
<ellipse fill="none" stroke="#000000" cx="153.4639" cy="-162" rx="153.4278" ry="18"/>
<text text-anchor="middle" x="153.4639" y="-157.8" font-family="Times,serif" font-size="14.00" fill="#000000">116394 Peso: 4 Peso Acumulado: 14</text>
</g>
<!-- 129011&#45;&gt;116394 -->
<g id="edge2" class="edge">
<title>129011&#45;&gt;116394</title>
<path fill="none" stroke="#000000" d="M153.4639,-215.8314C153.4639,-208.131 153.4639,-198.9743 153.4639,-190.4166"/>
<polygon fill="#000000" stroke="#000000" points="156.964,-190.4132 153.4639,-180.4133 149.964,-190.4133 156.964,-190.4132"/>
</g>
<!-- 117935 -->
<g id="node4" class="node">
<title>117935</title>
<ellipse fill="none" stroke="#000000" cx="153.4639" cy="-90" rx="153.4278" ry="18"/>
<text text-anchor="middle" x="153.4639" y="-85.8" font-family="Times,serif" font-size="14.00" fill="#000000">117935 Peso: 4 Peso Acumulado: 18</text>
</g>
<!-- 116394&#45;&gt;117935 -->
<g id="edge3" class="edge">
<title>116394&#45;&gt;117935</title>
<path fill="none" stroke="#000000" d="M153.4639,-143.8314C153.4639,-136.131 153.4639,-126.9743 153.4639,-118.4166"/>
<polygon fill="#000000" stroke="#000000" points="156.964,-118.4132 153.4639,-108.4133 149.964,-118.4133 156.964,-118.4132"/>
</g>
<!-- 117960 -->
<g id="node5" class="node">
<title>117960</title>
<ellipse fill="none" stroke="#000000" cx="153.4639" cy="-18" rx="153.4278" ry="18"/>
<text text-anchor="middle" x="153.4639" y="-13.8" font-family="Times,serif" font-size="14.00" fill="#000000">117960 Peso: 4 Peso Acumulado: 22</text>
</g>
<!-- 117935&#45;&gt;117960 -->
<g id="edge4" class="edge">
<title>117935&#45;&gt;117960</title>
<path fill="none" stroke="#000000" d="M153.4639,-71.8314C153.4639,-64.131 153.4639,-54.9743 153.4639,-46.4166"/>
<polygon fill="#000000" stroke="#000000" points="156.964,-46.4132 153.4639,-36.4133 149.964,-46.4133 156.964,-46.4132"/>
</g>
</g>
</svg>
