<?xml version="1.0" encoding="UTF-8" standalone="no"?>
<!DOCTYPE svg PUBLIC "-//W3C//DTD SVG 1.1//EN"
 "http://www.w3.org/Graphics/SVG/1.1/DTD/svg11.dtd">
<!-- Generated by graphviz version 2.40.1 (20161225.0304)
 -->
<!-- Title: CiC Pages: 1 -->
<svg width="1227pt" height="501pt"
 viewBox="0.00 0.00 1227.01 500.80" xmlns="http://www.w3.org/2000/svg" xmlns:xlink="http://www.w3.org/1999/xlink">
<g id="graph0" class="graph" transform="scale(1 1) rotate(0) translate(4 496.8)">
<title>CiC</title>
<polygon fill="#ffffff" stroke="transparent" points="-4,4 -4,-496.8 1223.0147,-496.8 1223.0147,4 -4,4"/>
<text text-anchor="middle" x="609.5073" y="-476.2" font-family="Times,serif" font-size="14.00" fill="#000000">Ciencia da Computacao</text>
<!-- 113034 -->
<g id="node1" class="node">
<title>113034</title>
<ellipse fill="none" stroke="#000000" cx="108.0073" cy="-378" rx="40.0147" ry="18"/>
<text text-anchor="middle" x="108.0073" y="-373.8" font-family="Times,serif" font-size="14.00" fill="#000000">113034</text>
</g>
<!-- 113042 -->
<g id="node2" class="node">
<title>113042</title>
<ellipse fill="none" stroke="#000000" cx="40.0073" cy="-306" rx="40.0147" ry="18"/>
<text text-anchor="middle" x="40.0073" y="-301.8" font-family="Times,serif" font-size="14.00" fill="#000000">113042</text>
</g>
<!-- 113034&#45;&gt;113042 -->
<g id="edge1" class="edge">
<title>113034&#45;&gt;113042</title>
<path fill="none" stroke="#000000" d="M92.2359,-361.3008C83.4817,-352.0317 72.4386,-340.339 62.7641,-330.0954"/>
<polygon fill="#000000" stroke="#000000" points="65.1041,-327.4756 55.6933,-322.6087 60.015,-332.282 65.1041,-327.4756"/>
</g>
<!-- 115045 -->
<g id="node3" class="node">
<title>115045</title>
<ellipse fill="none" stroke="#000000" cx="176.0073" cy="-306" rx="40.0147" ry="18"/>
<text text-anchor="middle" x="176.0073" y="-301.8" font-family="Times,serif" font-size="14.00" fill="#000000">115045</text>
</g>
<!-- 113034&#45;&gt;115045 -->
<g id="edge2" class="edge">
<title>113034&#45;&gt;115045</title>
<path fill="none" stroke="#000000" d="M123.7788,-361.3008C132.5329,-352.0317 143.5761,-340.339 153.2506,-330.0954"/>
<polygon fill="#000000" stroke="#000000" points="155.9997,-332.282 160.3214,-322.6087 150.9106,-327.4756 155.9997,-332.282"/>
</g>
<!-- 117536 -->
<g id="node4" class="node">
<title>117536</title>
<ellipse fill="none" stroke="#000000" cx="440.0073" cy="-162" rx="40.0147" ry="18"/>
<text text-anchor="middle" x="440.0073" y="-157.8" font-family="Times,serif" font-size="14.00" fill="#000000">117536</text>
</g>
<!-- 113034&#45;&gt;117536 -->
<g id="edge3" class="edge">
<title>113034&#45;&gt;117536</title>
<path fill="none" stroke="#000000" d="M103.9651,-360.0883C97.624,-326.8605 89.6156,-255.4711 127.0073,-216 162.167,-178.8852 310.6034,-167.2059 389.7745,-163.587"/>
<polygon fill="#000000" stroke="#000000" points="390.1627,-167.0737 400.0029,-163.1468 389.8616,-160.0801 390.1627,-167.0737"/>
</g>
<!-- 116572 -->
<g id="node14" class="node">
<title>116572</title>
<ellipse fill="none" stroke="#000000" cx="176.0073" cy="-234" rx="40.0147" ry="18"/>
<text text-anchor="middle" x="176.0073" y="-229.8" font-family="Times,serif" font-size="14.00" fill="#000000">116572</text>
</g>
<!-- 113042&#45;&gt;116572 -->
<g id="edge20" class="edge">
<title>113042&#45;&gt;116572</title>
<path fill="none" stroke="#000000" d="M66.2295,-292.1177C87.4899,-280.8622 117.6459,-264.8972 140.9736,-252.5473"/>
<polygon fill="#000000" stroke="#000000" points="142.6654,-255.6119 149.8657,-247.8397 139.3902,-249.4254 142.6654,-255.6119"/>
</g>
<!-- 113417 -->
<g id="node20" class="node">
<title>113417</title>
<ellipse fill="none" stroke="#000000" cx="40.0073" cy="-234" rx="40.0147" ry="18"/>
<text text-anchor="middle" x="40.0073" y="-229.8" font-family="Times,serif" font-size="14.00" fill="#000000">113417</text>
</g>
<!-- 113042&#45;&gt;113417 -->
<g id="edge19" class="edge">
<title>113042&#45;&gt;113417</title>
<path fill="none" stroke="#000000" d="M40.0073,-287.8314C40.0073,-280.131 40.0073,-270.9743 40.0073,-262.4166"/>
<polygon fill="#000000" stroke="#000000" points="43.5074,-262.4132 40.0073,-252.4133 36.5074,-262.4133 43.5074,-262.4132"/>
</g>
<!-- 115045&#45;&gt;116572 -->
<g id="edge27" class="edge">
<title>115045&#45;&gt;116572</title>
<path fill="none" stroke="#000000" d="M176.0073,-287.8314C176.0073,-280.131 176.0073,-270.9743 176.0073,-262.4166"/>
<polygon fill="#000000" stroke="#000000" points="179.5074,-262.4132 176.0073,-252.4133 172.5074,-262.4133 179.5074,-262.4132"/>
</g>
<!-- 117943 -->
<g id="node19" class="node">
<title>117943</title>
<ellipse fill="none" stroke="#000000" cx="274.0073" cy="-234" rx="40.0147" ry="18"/>
<text text-anchor="middle" x="274.0073" y="-229.8" font-family="Times,serif" font-size="14.00" fill="#000000">117943</text>
</g>
<!-- 115045&#45;&gt;117943 -->
<g id="edge28" class="edge">
<title>115045&#45;&gt;117943</title>
<path fill="none" stroke="#000000" d="M197.2719,-290.3771C211.1413,-280.1873 229.4313,-266.7498 244.6758,-255.5497"/>
<polygon fill="#000000" stroke="#000000" points="246.7977,-258.3338 252.7843,-249.5924 242.6532,-252.6926 246.7977,-258.3338"/>
</g>
<!-- 113450 -->
<g id="node5" class="node">
<title>113450</title>
<ellipse fill="none" stroke="#000000" cx="802.0073" cy="-306" rx="40.0147" ry="18"/>
<text text-anchor="middle" x="802.0073" y="-301.8" font-family="Times,serif" font-size="14.00" fill="#000000">113450</text>
</g>
<!-- 117366 -->
<g id="node6" class="node">
<title>117366</title>
<ellipse fill="none" stroke="#000000" cx="802.0073" cy="-234" rx="40.0147" ry="18"/>
<text text-anchor="middle" x="802.0073" y="-229.8" font-family="Times,serif" font-size="14.00" fill="#000000">117366</text>
</g>
<!-- 113450&#45;&gt;117366 -->
<g id="edge4" class="edge">
<title>113450&#45;&gt;117366</title>
<path fill="none" stroke="#000000" d="M802.0073,-287.8314C802.0073,-280.131 802.0073,-270.9743 802.0073,-262.4166"/>
<polygon fill="#000000" stroke="#000000" points="805.5074,-262.4132 802.0073,-252.4133 798.5074,-262.4133 805.5074,-262.4132"/>
</g>
<!-- 113476 -->
<g id="node7" class="node">
<title>113476</title>
<ellipse fill="none" stroke="#000000" cx="1130.0073" cy="-450" rx="40.0147" ry="18"/>
<text text-anchor="middle" x="1130.0073" y="-445.8" font-family="Times,serif" font-size="14.00" fill="#000000">113476</text>
</g>
<!-- 129011 -->
<g id="node8" class="node">
<title>129011</title>
<ellipse fill="none" stroke="#000000" cx="1081.0073" cy="-378" rx="40.0147" ry="18"/>
<text text-anchor="middle" x="1081.0073" y="-373.8" font-family="Times,serif" font-size="14.00" fill="#000000">129011</text>
</g>
<!-- 113476&#45;&gt;129011 -->
<g id="edge5" class="edge">
<title>113476&#45;&gt;129011</title>
<path fill="none" stroke="#000000" d="M1118.1458,-432.5708C1112.2474,-423.9038 1105.0032,-413.2592 1098.4837,-403.6796"/>
<polygon fill="#000000" stroke="#000000" points="1101.2794,-401.5666 1092.7596,-395.2687 1095.4924,-405.505 1101.2794,-401.5666"/>
</g>
<!-- 129020 -->
<g id="node9" class="node">
<title>129020</title>
<ellipse fill="none" stroke="#000000" cx="1179.0073" cy="-378" rx="40.0147" ry="18"/>
<text text-anchor="middle" x="1179.0073" y="-373.8" font-family="Times,serif" font-size="14.00" fill="#000000">129020</text>
</g>
<!-- 113476&#45;&gt;129020 -->
<g id="edge6" class="edge">
<title>113476&#45;&gt;129020</title>
<path fill="none" stroke="#000000" d="M1141.8689,-432.5708C1147.7673,-423.9038 1155.0115,-413.2592 1161.5309,-403.6796"/>
<polygon fill="#000000" stroke="#000000" points="1164.5223,-405.505 1167.255,-395.2687 1158.7353,-401.5666 1164.5223,-405.505"/>
</g>
<!-- 116394 -->
<g id="node10" class="node">
<title>116394</title>
<ellipse fill="none" stroke="#000000" cx="1130.0073" cy="-306" rx="40.0147" ry="18"/>
<text text-anchor="middle" x="1130.0073" y="-301.8" font-family="Times,serif" font-size="14.00" fill="#000000">116394</text>
</g>
<!-- 129011&#45;&gt;116394 -->
<g id="edge7" class="edge">
<title>129011&#45;&gt;116394</title>
<path fill="none" stroke="#000000" d="M1092.8689,-360.5708C1098.7673,-351.9038 1106.0115,-341.2592 1112.5309,-331.6796"/>
<polygon fill="#000000" stroke="#000000" points="1115.5223,-333.505 1118.255,-323.2687 1109.7353,-329.5666 1115.5223,-333.505"/>
</g>
<!-- 129020&#45;&gt;116394 -->
<g id="edge18" class="edge">
<title>129020&#45;&gt;116394</title>
<path fill="none" stroke="#000000" d="M1167.1458,-360.5708C1161.2474,-351.9038 1154.0032,-341.2592 1147.4837,-331.6796"/>
<polygon fill="#000000" stroke="#000000" points="1150.2794,-329.5666 1141.7596,-323.2687 1144.4924,-333.505 1150.2794,-329.5666"/>
</g>
<!-- 116432 -->
<g id="node17" class="node">
<title>116432</title>
<ellipse fill="none" stroke="#000000" cx="1096.0073" cy="-234" rx="40.0147" ry="18"/>
<text text-anchor="middle" x="1096.0073" y="-229.8" font-family="Times,serif" font-size="14.00" fill="#000000">116432</text>
</g>
<!-- 116394&#45;&gt;116432 -->
<g id="edge22" class="edge">
<title>116394&#45;&gt;116432</title>
<path fill="none" stroke="#000000" d="M1121.6028,-288.2022C1117.7206,-279.981 1113.0267,-270.041 1108.7244,-260.9301"/>
<polygon fill="#000000" stroke="#000000" points="1111.868,-259.3905 1104.433,-251.8425 1105.5382,-262.3796 1111.868,-259.3905"/>
</g>
<!-- 117935 -->
<g id="node21" class="node">
<title>117935</title>
<ellipse fill="none" stroke="#000000" cx="885.0073" cy="-90" rx="40.0147" ry="18"/>
<text text-anchor="middle" x="885.0073" y="-85.8" font-family="Times,serif" font-size="14.00" fill="#000000">117935</text>
</g>
<!-- 116394&#45;&gt;117935 -->
<g id="edge21" class="edge">
<title>116394&#45;&gt;117935</title>
<path fill="none" stroke="#000000" d="M1139.1246,-288.1178C1147.3985,-269.2247 1156.6682,-239.0369 1145.0073,-216 1105.2014,-137.3605 997.544,-107.3131 933.9356,-96.2011"/>
<polygon fill="#000000" stroke="#000000" points="934.1781,-92.6938 923.7412,-94.5162 933.0366,-99.6001 934.1781,-92.6938"/>
</g>
<!-- 116319 -->
<g id="node11" class="node">
<title>116319</title>
<ellipse fill="none" stroke="#000000" cx="557.0073" cy="-306" rx="40.0147" ry="18"/>
<text text-anchor="middle" x="557.0073" y="-301.8" font-family="Times,serif" font-size="14.00" fill="#000000">116319</text>
</g>
<!-- 116319&#45;&gt;117536 -->
<g id="edge17" class="edge">
<title>116319&#45;&gt;117536</title>
<path fill="none" stroke="#000000" d="M523.9093,-295.8873C502.1963,-287.5494 474.9654,-273.5405 459.0073,-252 445.8341,-234.2186 441.3552,-209.3165 440.0179,-190.2128"/>
<polygon fill="#000000" stroke="#000000" points="443.5046,-189.8378 439.557,-180.0059 436.5117,-190.1536 443.5046,-189.8378"/>
</g>
<!-- 116319&#45;&gt;117366 -->
<g id="edge9" class="edge">
<title>116319&#45;&gt;117366</title>
<path fill="none" stroke="#000000" d="M592.3193,-297.216C631.7642,-287.1854 697.3854,-269.8444 753.0073,-252 755.8915,-251.0747 758.8578,-250.0842 761.8355,-249.0613"/>
<polygon fill="#000000" stroke="#000000" points="763.0323,-252.3506 771.2991,-245.7241 760.7043,-245.7491 763.0323,-252.3506"/>
</g>
<!-- 117889 -->
<g id="node12" class="node">
<title>117889</title>
<ellipse fill="none" stroke="#000000" cx="606.0073" cy="-234" rx="40.0147" ry="18"/>
<text text-anchor="middle" x="606.0073" y="-229.8" font-family="Times,serif" font-size="14.00" fill="#000000">117889</text>
</g>
<!-- 116319&#45;&gt;117889 -->
<g id="edge8" class="edge">
<title>116319&#45;&gt;117889</title>
<path fill="none" stroke="#000000" d="M568.8689,-288.5708C574.7673,-279.9038 582.0115,-269.2592 588.5309,-259.6796"/>
<polygon fill="#000000" stroke="#000000" points="591.5223,-261.505 594.255,-251.2687 585.7353,-257.5666 591.5223,-261.505"/>
</g>
<!-- 117901 -->
<g id="node13" class="node">
<title>117901</title>
<ellipse fill="none" stroke="#000000" cx="372.0073" cy="-234" rx="40.0147" ry="18"/>
<text text-anchor="middle" x="372.0073" y="-229.8" font-family="Times,serif" font-size="14.00" fill="#000000">117901</text>
</g>
<!-- 116319&#45;&gt;117901 -->
<g id="edge10" class="edge">
<title>116319&#45;&gt;117901</title>
<path fill="none" stroke="#000000" d="M526.4584,-294.1107C495.167,-281.9324 446.3707,-262.9414 412.0153,-249.5707"/>
<polygon fill="#000000" stroke="#000000" points="412.8828,-246.1526 402.2942,-245.7873 410.3439,-252.676 412.8828,-246.1526"/>
</g>
<!-- 116319&#45;&gt;116572 -->
<g id="edge11" class="edge">
<title>116319&#45;&gt;116572</title>
<path fill="none" stroke="#000000" d="M517.9126,-302.0883C455.3223,-295.2816 329.0786,-279.3113 225.0073,-252 221.9927,-251.2089 218.9037,-250.3054 215.8148,-249.3342"/>
<polygon fill="#000000" stroke="#000000" points="216.6339,-245.9174 206.04,-246.0554 214.4078,-252.554 216.6339,-245.9174"/>
</g>
<!-- 116343 -->
<g id="node15" class="node">
<title>116343</title>
<ellipse fill="none" stroke="#000000" cx="704.0073" cy="-234" rx="40.0147" ry="18"/>
<text text-anchor="middle" x="704.0073" y="-229.8" font-family="Times,serif" font-size="14.00" fill="#000000">116343</text>
</g>
<!-- 116319&#45;&gt;116343 -->
<g id="edge12" class="edge">
<title>116319&#45;&gt;116343</title>
<path fill="none" stroke="#000000" d="M584.3124,-292.6261C607.828,-281.1082 641.953,-264.394 667.7544,-251.7566"/>
<polygon fill="#000000" stroke="#000000" points="669.4074,-254.8442 676.8485,-247.3023 666.3283,-248.5578 669.4074,-254.8442"/>
</g>
<!-- 116653 -->
<g id="node16" class="node">
<title>116653</title>
<ellipse fill="none" stroke="#000000" cx="508.0073" cy="-234" rx="40.0147" ry="18"/>
<text text-anchor="middle" x="508.0073" y="-229.8" font-family="Times,serif" font-size="14.00" fill="#000000">116653</text>
</g>
<!-- 116319&#45;&gt;116653 -->
<g id="edge13" class="edge">
<title>116319&#45;&gt;116653</title>
<path fill="none" stroke="#000000" d="M545.1458,-288.5708C539.2474,-279.9038 532.0032,-269.2592 525.4837,-259.6796"/>
<polygon fill="#000000" stroke="#000000" points="528.2794,-257.5666 519.7596,-251.2687 522.4924,-261.505 528.2794,-257.5666"/>
</g>
<!-- 116319&#45;&gt;116432 -->
<g id="edge14" class="edge">
<title>116319&#45;&gt;116432</title>
<path fill="none" stroke="#000000" d="M596.4793,-302.205C705.1439,-291.6792 1003.5283,-262.2217 1047.0073,-252 1050.1833,-251.2533 1053.4351,-250.3607 1056.6785,-249.3779"/>
<polygon fill="#000000" stroke="#000000" points="1057.8927,-252.6631 1066.2994,-246.215 1055.7065,-246.0133 1057.8927,-252.6631"/>
</g>
<!-- 116416 -->
<g id="node18" class="node">
<title>116416</title>
<ellipse fill="none" stroke="#000000" cx="900.0073" cy="-234" rx="40.0147" ry="18"/>
<text text-anchor="middle" x="900.0073" y="-229.8" font-family="Times,serif" font-size="14.00" fill="#000000">116416</text>
</g>
<!-- 116319&#45;&gt;116416 -->
<g id="edge15" class="edge">
<title>116319&#45;&gt;116416</title>
<path fill="none" stroke="#000000" d="M595.5328,-301.0608C652.1579,-293.3219 760.9016,-276.6319 851.0073,-252 854.0138,-251.1781 857.0967,-250.2523 860.1814,-249.2651"/>
<polygon fill="#000000" stroke="#000000" points="861.6001,-252.48 869.9481,-245.9561 859.3538,-245.8502 861.6001,-252.48"/>
</g>
<!-- 116319&#45;&gt;117943 -->
<g id="edge16" class="edge">
<title>116319&#45;&gt;117943</title>
<path fill="none" stroke="#000000" d="M520.1586,-298.9841C473.742,-289.8075 391.7362,-272.4663 323.0073,-252 320.0623,-251.123 317.0378,-250.1626 314.0066,-249.1562"/>
<polygon fill="#000000" stroke="#000000" points="314.9858,-245.7915 304.3911,-245.8312 312.6981,-252.4072 314.9858,-245.7915"/>
</g>
<!-- 117889&#45;&gt;117536 -->
<g id="edge25" class="edge">
<title>117889&#45;&gt;117536</title>
<path fill="none" stroke="#000000" d="M577.0923,-221.4586C549.6834,-209.5703 508.3369,-191.6369 478.2205,-178.5744"/>
<polygon fill="#000000" stroke="#000000" points="479.4359,-175.2866 468.869,-174.5183 476.6505,-181.7085 479.4359,-175.2866"/>
</g>
<!-- 117897 -->
<g id="node22" class="node">
<title>117897</title>
<ellipse fill="none" stroke="#000000" cx="606.0073" cy="-162" rx="40.0147" ry="18"/>
<text text-anchor="middle" x="606.0073" y="-157.8" font-family="Times,serif" font-size="14.00" fill="#000000">117897</text>
</g>
<!-- 117889&#45;&gt;117897 -->
<g id="edge23" class="edge">
<title>117889&#45;&gt;117897</title>
<path fill="none" stroke="#000000" d="M606.0073,-215.8314C606.0073,-208.131 606.0073,-198.9743 606.0073,-190.4166"/>
<polygon fill="#000000" stroke="#000000" points="609.5074,-190.4132 606.0073,-180.4133 602.5074,-190.4133 609.5074,-190.4132"/>
</g>
<!-- 116441 -->
<g id="node23" class="node">
<title>116441</title>
<ellipse fill="none" stroke="#000000" cx="704.0073" cy="-162" rx="40.0147" ry="18"/>
<text text-anchor="middle" x="704.0073" y="-157.8" font-family="Times,serif" font-size="14.00" fill="#000000">116441</text>
</g>
<!-- 117889&#45;&gt;116441 -->
<g id="edge24" class="edge">
<title>117889&#45;&gt;116441</title>
<path fill="none" stroke="#000000" d="M627.2719,-218.3771C641.1413,-208.1873 659.4313,-194.7498 674.6758,-183.5497"/>
<polygon fill="#000000" stroke="#000000" points="676.7977,-186.3338 682.7843,-177.5924 672.6532,-180.6926 676.7977,-186.3338"/>
</g>
<!-- 117927 -->
<g id="node26" class="node">
<title>117927</title>
<ellipse fill="none" stroke="#000000" cx="176.0073" cy="-162" rx="40.0147" ry="18"/>
<text text-anchor="middle" x="176.0073" y="-157.8" font-family="Times,serif" font-size="14.00" fill="#000000">117927</text>
</g>
<!-- 116572&#45;&gt;117927 -->
<g id="edge30" class="edge">
<title>116572&#45;&gt;117927</title>
<path fill="none" stroke="#000000" d="M176.0073,-215.8314C176.0073,-208.131 176.0073,-198.9743 176.0073,-190.4166"/>
<polygon fill="#000000" stroke="#000000" points="179.5074,-190.4132 176.0073,-180.4133 172.5074,-190.4133 179.5074,-190.4132"/>
</g>
<!-- 116343&#45;&gt;116441 -->
<g id="edge31" class="edge">
<title>116343&#45;&gt;116441</title>
<path fill="none" stroke="#000000" d="M704.0073,-215.8314C704.0073,-208.131 704.0073,-198.9743 704.0073,-190.4166"/>
<polygon fill="#000000" stroke="#000000" points="707.5074,-190.4132 704.0073,-180.4133 700.5074,-190.4133 707.5074,-190.4132"/>
</g>
<!-- 117951 -->
<g id="node27" class="node">
<title>117951</title>
<ellipse fill="none" stroke="#000000" cx="998.0073" cy="-162" rx="40.0147" ry="18"/>
<text text-anchor="middle" x="998.0073" y="-157.8" font-family="Times,serif" font-size="14.00" fill="#000000">117951</text>
</g>
<!-- 116343&#45;&gt;117951 -->
<g id="edge32" class="edge">
<title>116343&#45;&gt;117951</title>
<path fill="none" stroke="#000000" d="M734.3771,-222.1213C740.4957,-219.9332 746.9184,-217.7806 753.0073,-216 820.7223,-196.1985 900.8315,-179.8363 950.5412,-170.4886"/>
<polygon fill="#000000" stroke="#000000" points="951.4819,-173.8736 960.6719,-168.6016 950.2001,-166.992 951.4819,-173.8736"/>
</g>
<!-- 116432&#45;&gt;117951 -->
<g id="edge35" class="edge">
<title>116432&#45;&gt;117951</title>
<path fill="none" stroke="#000000" d="M1074.7428,-218.3771C1060.8733,-208.1873 1042.5834,-194.7498 1027.3389,-183.5497"/>
<polygon fill="#000000" stroke="#000000" points="1029.3615,-180.6926 1019.2304,-177.5924 1025.2169,-186.3338 1029.3615,-180.6926"/>
</g>
<!-- 117960 -->
<g id="node28" class="node">
<title>117960</title>
<ellipse fill="none" stroke="#000000" cx="885.0073" cy="-18" rx="40.0147" ry="18"/>
<text text-anchor="middle" x="885.0073" y="-13.8" font-family="Times,serif" font-size="14.00" fill="#000000">117960</text>
</g>
<!-- 117935&#45;&gt;117960 -->
<g id="edge33" class="edge">
<title>117935&#45;&gt;117960</title>
<path fill="none" stroke="#000000" d="M885.0073,-71.8314C885.0073,-64.131 885.0073,-54.9743 885.0073,-46.4166"/>
<polygon fill="#000000" stroke="#000000" points="888.5074,-46.4132 885.0073,-36.4133 881.5074,-46.4133 888.5074,-46.4132"/>
</g>
<!-- 117897&#45;&gt;117935 -->
<g id="edge29" class="edge">
<title>117897&#45;&gt;117935</title>
<path fill="none" stroke="#000000" d="M636.3966,-150.1871C642.5136,-147.9936 648.9307,-145.8221 655.0073,-144 717.5974,-125.232 791.3581,-108.9105 838.1474,-99.2588"/>
<polygon fill="#000000" stroke="#000000" points="838.9008,-102.6773 847.9962,-97.2437 837.4976,-95.8194 838.9008,-102.6773"/>
</g>
<!-- 113107 -->
<g id="node24" class="node">
<title>113107</title>
<ellipse fill="none" stroke="#000000" cx="998.0073" cy="-306" rx="40.0147" ry="18"/>
<text text-anchor="middle" x="998.0073" y="-301.8" font-family="Times,serif" font-size="14.00" fill="#000000">113107</text>
</g>
<!-- 116882 -->
<g id="node25" class="node">
<title>116882</title>
<ellipse fill="none" stroke="#000000" cx="998.0073" cy="-234" rx="40.0147" ry="18"/>
<text text-anchor="middle" x="998.0073" y="-229.8" font-family="Times,serif" font-size="14.00" fill="#000000">116882</text>
</g>
<!-- 113107&#45;&gt;116882 -->
<g id="edge26" class="edge">
<title>113107&#45;&gt;116882</title>
<path fill="none" stroke="#000000" d="M998.0073,-287.8314C998.0073,-280.131 998.0073,-270.9743 998.0073,-262.4166"/>
<polygon fill="#000000" stroke="#000000" points="1001.5074,-262.4132 998.0073,-252.4133 994.5074,-262.4133 1001.5074,-262.4132"/>
</g>
<!-- 116882&#45;&gt;117951 -->
<g id="edge36" class="edge">
<title>116882&#45;&gt;117951</title>
<path fill="none" stroke="#000000" d="M998.0073,-215.8314C998.0073,-208.131 998.0073,-198.9743 998.0073,-190.4166"/>
<polygon fill="#000000" stroke="#000000" points="1001.5074,-190.4132 998.0073,-180.4133 994.5074,-190.4133 1001.5074,-190.4132"/>
</g>
<!-- 116378 -->
<g id="node29" class="node">
<title>116378</title>
<ellipse fill="none" stroke="#000000" cx="900.0073" cy="-306" rx="40.0147" ry="18"/>
<text text-anchor="middle" x="900.0073" y="-301.8" font-family="Times,serif" font-size="14.00" fill="#000000">116378</text>
</g>
<!-- 116378&#45;&gt;116416 -->
<g id="edge34" class="edge">
<title>116378&#45;&gt;116416</title>
<path fill="none" stroke="#000000" d="M900.0073,-287.8314C900.0073,-280.131 900.0073,-270.9743 900.0073,-262.4166"/>
<polygon fill="#000000" stroke="#000000" points="903.5074,-262.4132 900.0073,-252.4133 896.5074,-262.4133 903.5074,-262.4132"/>
</g>
</g>
</svg>
